<svg width="210" height="212" viewBox="0 0 210 212" fill="none" xmlns="http://www.w3.org/2000/svg">
<path d="M112.893 97.0779C112.146 82.6623 109.951 54.5981 103.823 39.0271C97.6943 54.5981 95.4994 82.6623 94.752 97.0779C81.483 97.7576 44.6795 106.166 44.6795 106.166C60.2189 112.306 80.3682 114.506 94.752 115.253C95.4994 129.668 97.6943 157.733 103.823 173.304C109.951 157.733 112.146 129.668 112.893 115.253C127.277 114.506 147.428 112.306 162.966 106.166C162.966 106.166 127.277 97.8255 112.893 97.0779Z" stroke="#D7BE8A" stroke-width="2.96639" stroke-miterlimit="10" stroke-linecap="round" stroke-linejoin="round"/>
<path d="M0 106.167H33.6722" stroke="#D7BE8A" stroke-width="2.96639" stroke-miterlimit="10" stroke-linecap="round" stroke-linejoin="round"/>
<path d="M173.973 106.167H207.646" stroke="#D7BE8A" stroke-width="2.96639" stroke-miterlimit="10" stroke-linecap="round" stroke-linejoin="round"/>
<path d="M103.823 2.13226V30.0054" stroke="#D7BE8A" stroke-width="2.96639" stroke-miterlimit="10" stroke-linecap="round" stroke-linejoin="round"/>
<path d="M103.823 182.326V210.2" stroke="#D7BE8A" stroke-width="2.96639" stroke-miterlimit="10" stroke-linecap="round" stroke-linejoin="round"/>
<path d="M48.4423 50.6728L65.8477 68.1135" stroke="#D7BE8A" stroke-width="2.96639" stroke-miterlimit="10" stroke-linecap="round" stroke-linejoin="round"/>
<path d="M35.1683 37.3714L42.8574 45.0762" stroke="#D7BE8A" stroke-width="2.96639" stroke-miterlimit="10" stroke-linecap="round" stroke-linejoin="round"/>
<path d="M159.311 161.767L141.905 144.325" stroke="#D7BE8A" stroke-width="2.96639" stroke-miterlimit="10" stroke-linecap="round" stroke-linejoin="round"/>
<path d="M172.585 175.068L164.896 167.362" stroke="#D7BE8A" stroke-width="2.96639" stroke-miterlimit="10" stroke-linecap="round" stroke-linejoin="round"/>
<path d="M65.8473 144.218L47.619 162.483" stroke="#D7BE8A" stroke-width="2.96639" stroke-miterlimit="10" stroke-linecap="round" stroke-linejoin="round"/>
<path d="M159.311 50.6728L141.905 68.1135" stroke="#D7BE8A" stroke-width="2.96639" stroke-miterlimit="10" stroke-linecap="round" stroke-linejoin="round"/>
<path d="M172.585 37.3714L164.896 45.0762" stroke="#D7BE8A" stroke-width="2.96639" stroke-miterlimit="10" stroke-linecap="round" stroke-linejoin="round"/>
<path d="M35.1683 175.068L42.8574 167.362" stroke="#D7BE8A" stroke-width="2.96639" stroke-miterlimit="10" stroke-linecap="round" stroke-linejoin="round"/>
<path d="M30.6987 74.95L54.4148 85.0732" stroke="#D7BE8A" stroke-width="2.96639" stroke-miterlimit="10" stroke-linecap="round" stroke-linejoin="round"/>
<path d="M153.232 127.258L176.946 137.381" stroke="#D7BE8A" stroke-width="2.96639" stroke-miterlimit="10" stroke-linecap="round" stroke-linejoin="round"/>
<path d="M134.976 32.8934L124.872 56.6577" stroke="#D7BE8A" stroke-width="2.96639" stroke-miterlimit="10" stroke-linecap="round" stroke-linejoin="round"/>
<path d="M82.773 155.674L72.6702 179.438" stroke="#D7BE8A" stroke-width="2.96639" stroke-miterlimit="10" stroke-linecap="round" stroke-linejoin="round"/>
<path d="M74.1447 32.2803L83.7701 56.2434" stroke="#D7BE8A" stroke-width="2.96639" stroke-miterlimit="10" stroke-linecap="round" stroke-linejoin="round"/>
<path d="M123.875 156.087L133.501 180.05" stroke="#D7BE8A" stroke-width="2.96639" stroke-miterlimit="10" stroke-linecap="round" stroke-linejoin="round"/>
<path d="M177.557 76.4275L153.644 86.0725" stroke="#D7BE8A" stroke-width="2.96639" stroke-miterlimit="10" stroke-linecap="round" stroke-linejoin="round"/>
<path d="M54.0028 126.259L30.0883 135.904" stroke="#D7BE8A" stroke-width="2.96639" stroke-miterlimit="10" stroke-linecap="round" stroke-linejoin="round"/>
</svg>
