<svg width="88" height="99" viewBox="0 0 88 99" fill="none" xmlns="http://www.w3.org/2000/svg">
<path d="M23.7607 69.4927L12.9412 80.3418" stroke="#D7BE8A" stroke-width="2.96639" stroke-miterlimit="10" stroke-linecap="round" stroke-linejoin="round"/>
<path d="M75.0742 18.0806L64.2599 28.917" stroke="#D7BE8A" stroke-width="2.96639" stroke-miterlimit="10" stroke-linecap="round" stroke-linejoin="round"/>
<path d="M64.2547 69.4927L75.0742 80.3418" stroke="#D7BE8A" stroke-width="2.96639" stroke-miterlimit="10" stroke-linecap="round" stroke-linejoin="round"/>
<path d="M12.9412 18.0806L23.7607 28.917" stroke="#D7BE8A" stroke-width="2.96639" stroke-miterlimit="10" stroke-linecap="round" stroke-linejoin="round"/>
<path d="M2.11264 49.2048C2.11264 49.2048 13.398 46.5759 23.927 44.6651C27.0791 44.088 29.9229 42.703 32.2624 40.7409C29.96 37.7145 27.8202 34.5084 26.653 31.8153C29.2958 32.9695 32.4287 35.0598 35.4145 37.3297C37.1704 34.8418 38.3235 31.9179 38.646 28.7375C39.6059 19.3118 41.2402 8.68074 44.0085 1.65313C46.7792 8.69356 48.4148 19.3376 49.3734 28.7761C49.719 32.1745 51.0128 35.3035 52.9863 37.894C57.0331 35.0085 61.3626 31.8153 61.3626 31.8153C60.3234 34.2134 57.7639 37.7657 55.5997 40.6511C57.9699 42.6774 60.8712 44.1136 64.0963 44.7035C74.5293 46.6143 85.9043 49.2048 85.9043 49.2048C79.5756 51.7055 72.1681 53.2829 65.0779 54.2704C61.6992 54.7448 58.6303 56.1298 56.1014 58.1304C58.2694 61.0286 60.2556 64.0423 61.3626 66.5943C58.8222 65.4914 55.8288 63.5166 52.9492 61.3493C50.9604 63.9397 49.6447 67.0816 49.2813 70.5313C48.3125 79.739 46.6935 89.9469 44.0085 96.7681C41.3234 89.9469 39.7045 79.739 38.7344 70.5313C38.3645 67.0175 37.0079 63.8243 34.9564 61.2081C32.1779 63.2856 28.9093 65.6196 26.653 66.5943C26.653 66.5943 29.626 62.5162 32.439 58.5535C29.8179 56.3093 26.5519 54.7833 22.939 54.2704C15.8475 53.2829 8.44001 51.7055 2.11264 49.2048Z" stroke="#D7BE8A" stroke-width="2.96639" stroke-miterlimit="10" stroke-linecap="round" stroke-linejoin="round"/>
</svg>
