<svg width="382" height="384" viewBox="0 0 382 384" fill="none" xmlns="http://www.w3.org/2000/svg">
<path d="M278.567 191.983C278.567 240.443 239.362 279.726 191.002 279.726C142.641 279.726 103.437 240.443 103.437 191.983C103.437 143.528 142.641 104.235 191.002 104.235C239.362 104.235 278.567 143.528 278.567 191.983Z" stroke="#D7BE8A" stroke-width="3.33333" stroke-miterlimit="10" stroke-linecap="round" stroke-linejoin="round"/>
<path d="M191.003 120.534C187.276 120.534 183.617 120.829 180.045 121.38C205.118 126.664 224.313 156.262 224.313 191.983C224.313 227.709 205.118 257.307 180.045 262.589C183.617 263.14 187.276 263.429 191.003 263.429C230.381 263.429 262.303 231.442 262.303 191.983C262.303 152.53 230.381 120.534 191.003 120.534Z" stroke="#D7BE8A" stroke-width="3.33333" stroke-miterlimit="10" stroke-linecap="round" stroke-linejoin="round"/>
<path d="M191.002 81.446V2.30849" stroke="#D7BE8A" stroke-width="3.33333" stroke-miterlimit="10" stroke-linecap="round" stroke-linejoin="round"/>
<path d="M191.002 381.665V302.523" stroke="#D7BE8A" stroke-width="3.33333" stroke-miterlimit="10" stroke-linecap="round" stroke-linejoin="round"/>
<path d="M301.316 191.984H380.297" stroke="#D7BE8A" stroke-width="3.33333" stroke-miterlimit="10" stroke-linecap="round" stroke-linejoin="round"/>
<path d="M1.70703 191.984H80.6865" stroke="#D7BE8A" stroke-width="3.33333" stroke-miterlimit="10" stroke-linecap="round" stroke-linejoin="round"/>
<path d="M269.007 113.814L324.854 57.8625" stroke="#D7BE8A" stroke-width="3.33333" stroke-miterlimit="10" stroke-linecap="round" stroke-linejoin="round"/>
<path d="M57.1499 326.106L112.998 270.147" stroke="#D7BE8A" stroke-width="3.33333" stroke-miterlimit="10" stroke-linecap="round" stroke-linejoin="round"/>
<path d="M269.007 270.147L324.855 326.106" stroke="#D7BE8A" stroke-width="3.33333" stroke-miterlimit="10" stroke-linecap="round" stroke-linejoin="round"/>
<path d="M57.1499 57.8625L112.998 113.814" stroke="#D7BE8A" stroke-width="3.33333" stroke-miterlimit="10" stroke-linecap="round" stroke-linejoin="round"/>
<path d="M232.183 89.4355L261.667 16.0176" stroke="#D7BE8A" stroke-width="3.33333" stroke-miterlimit="10" stroke-linecap="round" stroke-linejoin="round"/>
<path d="M120.338 367.952L149.822 294.531" stroke="#D7BE8A" stroke-width="3.33333" stroke-miterlimit="10" stroke-linecap="round" stroke-linejoin="round"/>
<path d="M293.342 233.248L366.613 262.792" stroke="#D7BE8A" stroke-width="3.33333" stroke-miterlimit="10" stroke-linecap="round" stroke-linejoin="round"/>
<path d="M15.3911 121.175L88.6614 150.722" stroke="#D7BE8A" stroke-width="3.33333" stroke-miterlimit="10" stroke-linecap="round" stroke-linejoin="round"/>
<path d="M292.487 148.644L365.145 117.623" stroke="#D7BE8A" stroke-width="3.33333" stroke-miterlimit="10" stroke-linecap="round" stroke-linejoin="round"/>
<path d="M16.8589 266.343L89.5174 235.317" stroke="#D7BE8A" stroke-width="3.33333" stroke-miterlimit="10" stroke-linecap="round" stroke-linejoin="round"/>
<path d="M234.249 293.674L265.211 366.48" stroke="#D7BE8A" stroke-width="3.33333" stroke-miterlimit="10" stroke-linecap="round" stroke-linejoin="round"/>
<path d="M116.793 17.4795L147.757 90.2947" stroke="#D7BE8A" stroke-width="3.33333" stroke-miterlimit="10" stroke-linecap="round" stroke-linejoin="round"/>
<path d="M281.074 128.164L314.838 104.234" stroke="#D7BE8A" stroke-width="3.33333" stroke-miterlimit="10" stroke-linecap="round" stroke-linejoin="round"/>
<path d="M67.167 279.726L100.93 255.804" stroke="#D7BE8A" stroke-width="3.33333" stroke-miterlimit="10" stroke-linecap="round" stroke-linejoin="round"/>
<path d="M254.692 282.238L278.567 316.071" stroke="#D7BE8A" stroke-width="3.33333" stroke-miterlimit="10" stroke-linecap="round" stroke-linejoin="round"/>
<path d="M103.437 67.8911L127.311 101.734" stroke="#D7BE8A" stroke-width="3.33333" stroke-miterlimit="10" stroke-linecap="round" stroke-linejoin="round"/>
<path d="M299.019 169.535L339.509 161.122" stroke="#D7BE8A" stroke-width="3.33333" stroke-miterlimit="10" stroke-linecap="round" stroke-linejoin="round"/>
<path d="M42.4946 222.846L82.9853 214.431" stroke="#D7BE8A" stroke-width="3.33333" stroke-miterlimit="10" stroke-linecap="round" stroke-linejoin="round"/>
<path d="M213.404 300.22L221.802 340.793" stroke="#D7BE8A" stroke-width="3.33333" stroke-miterlimit="10" stroke-linecap="round" stroke-linejoin="round"/>
<path d="M160.201 43.1791L168.599 83.7417" stroke="#D7BE8A" stroke-width="3.33333" stroke-miterlimit="10" stroke-linecap="round" stroke-linejoin="round"/>
<path d="M299.729 210.677L340.485 217.683" stroke="#D7BE8A" stroke-width="3.33333" stroke-miterlimit="10" stroke-linecap="round" stroke-linejoin="round"/>
<path d="M41.5195 166.277L82.2763 173.291" stroke="#D7BE8A" stroke-width="3.33333" stroke-miterlimit="10" stroke-linecap="round" stroke-linejoin="round"/>
<path d="M172.348 300.932L165.355 341.77" stroke="#D7BE8A" stroke-width="3.33333" stroke-miterlimit="10" stroke-linecap="round" stroke-linejoin="round"/>
<path d="M216.649 42.1916L209.656 83.0364" stroke="#D7BE8A" stroke-width="3.33333" stroke-miterlimit="10" stroke-linecap="round" stroke-linejoin="round"/>
<path d="M251.321 99.4385L273.933 64.7365" stroke="#D7BE8A" stroke-width="3.33333" stroke-miterlimit="10" stroke-linecap="round" stroke-linejoin="round"/>
<path d="M108.072 319.228L130.683 284.535" stroke="#D7BE8A" stroke-width="3.33333" stroke-miterlimit="10" stroke-linecap="round" stroke-linejoin="round"/>
<path d="M283.366 252.425L317.989 275.082" stroke="#D7BE8A" stroke-width="3.33333" stroke-miterlimit="10" stroke-linecap="round" stroke-linejoin="round"/>
<path d="M64.0146 108.89L98.6386 131.537" stroke="#D7BE8A" stroke-width="3.33333" stroke-miterlimit="10" stroke-linecap="round" stroke-linejoin="round"/>
</svg>
