<svg width="167" height="211" viewBox="0 0 167 211" fill="none" xmlns="http://www.w3.org/2000/svg">
<path d="M65.7906 86.8339L64.9076 80.3795L68.4117 75.2255L84.7485 88.8883C84.7485 88.8883 74.4729 90.5785 65.7906 86.8339ZM51.883 69.67C51.5733 70.4266 50.5891 74.5715 50.5891 74.5715C50.5891 74.5715 46.6895 70.9717 48.4838 68.8455C50.2781 66.718 53.0591 63.0708 53.0591 63.0708L56.0193 64.7058C56.0193 64.7058 52.1927 68.9121 51.883 69.67ZM164.214 152.233C162.379 144.877 149.822 123.216 146.184 115.823C142.546 108.428 122.5 87.9867 115.515 84.1267C108.531 80.2666 83.9217 61.7499 83.9217 61.7499C83.9217 61.7499 86.9344 59.6699 92.5655 56.2292C98.1967 52.7884 98.9927 46.6752 95.7702 44.8926C92.545 43.1113 71.6944 51.7138 71.6944 51.7138L67.791 48.6206C67.791 48.6206 77.4792 46.7214 84.9686 40.3273C92.458 33.9357 92.7421 29.1767 90.3144 28.07C87.8878 26.9633 71.2158 31.7903 66.4306 32.4225C62.1381 32.9894 54.4912 38.2882 52.9606 39.3731C52.72 39.209 51.97 38.9103 50.0797 38.364C45.6452 37.0841 42.7311 38.9846 41.3489 41.4968C39.9654 44.0091 42.1014 47.764 42.1014 47.764L33.3283 56.4895L40.8293 33.9537C40.8293 33.9537 48.3174 27.5609 54.7766 21.7695C61.2358 15.9769 63.6598 3.50806 58.8131 3.4029C53.9652 3.29903 35.0164 16.9323 32.7562 18.4918C30.4961 20.0524 23.5685 35.181 23.5685 35.181C23.5685 35.181 20.2756 16.9771 12.4393 7.02947C4.60174 -2.91946 1.68121 3.65801 1.68121 3.65801L13.5246 57.2474L35.8022 119.39C37.8307 125.051 41.8493 129.774 47.1054 132.68L74.8159 147.995C80.671 151.231 101.601 165.48 114.101 173.79C116.343 175.282 110.784 186.659 104.231 198.348C95.742 213.492 101.273 232.676 116.452 241.064C136.499 252.144 161.24 238.61 162.784 215.72C164.597 188.832 166.019 159.473 164.214 152.233Z" stroke="#D7BE8A" stroke-width="2.96639" stroke-miterlimit="10" stroke-linecap="round" stroke-linejoin="round"/>
<path d="M83.921 61.7501L74.1036 66.8554L64.9069 80.3797L67.5587 99.7492C67.5587 99.7492 119.368 120.791 131.525 146.338" stroke="#D7BE8A" stroke-width="2.96639" stroke-miterlimit="10" stroke-linecap="round" stroke-linejoin="round"/>
<path d="M45.7191 110.147C45.7191 110.147 49.8081 73.4392 51.8827 69.6702C53.9572 65.9025 67.4029 53.4106 71.6941 51.7139" stroke="#D7BE8A" stroke-width="2.96639" stroke-miterlimit="10" stroke-linecap="round" stroke-linejoin="round"/>
<path d="M52.6853 39.5705L42.1013 47.7639L33.3282 56.4894L30.839 58.8837C29.4248 60.2443 28.6594 62.1474 28.7375 64.1095L29.7754 90.1013" stroke="#D7BE8A" stroke-width="2.96639" stroke-miterlimit="10" stroke-linecap="round" stroke-linejoin="round"/>
<path d="M23.5681 35.181L16.5061 48.0115" stroke="#D7BE8A" stroke-width="2.96639" stroke-miterlimit="10" stroke-linecap="round" stroke-linejoin="round"/>
<path d="M67.7904 48.6209L61.8841 51.5012L53.0585 63.071" stroke="#D7BE8A" stroke-width="2.96639" stroke-miterlimit="10" stroke-linecap="round" stroke-linejoin="round"/>
</svg>
