<svg width="167" height="211" viewBox="0 0 167 211" fill="none" xmlns="http://www.w3.org/2000/svg">
<path d="M82.2556 88.8883L98.5937 75.2255L102.098 80.3795L101.215 86.8339C92.5324 90.5785 82.2556 88.8883 82.2556 88.8883ZM110.986 64.7058L113.945 63.0708C113.945 63.0708 116.729 66.718 118.522 68.8455C120.316 70.9717 116.416 74.5715 116.416 74.5715C116.416 74.5715 115.432 70.4266 115.122 69.67C114.813 68.9121 110.986 64.7058 110.986 64.7058ZM4.22184 215.72C5.76529 238.61 30.5065 252.144 50.5535 241.064C65.7307 232.676 71.2646 213.492 62.7744 198.348C56.2218 186.659 50.6623 175.282 52.9045 173.79C65.4044 165.48 86.3344 151.231 92.1895 147.995L119.9 132.68C125.156 129.774 129.175 125.051 131.203 119.39L153.481 57.2474L165.324 3.65801C165.324 3.65801 162.404 -2.91946 154.566 7.02947C146.728 16.9771 143.436 35.181 143.436 35.181C143.436 35.181 136.509 20.0524 134.249 18.4918C131.99 16.9323 113.04 3.29903 108.192 3.4029C103.346 3.50806 105.77 15.9769 112.229 21.7695C118.687 27.5609 126.177 33.9537 126.177 33.9537L133.677 56.4895L124.904 47.764C124.904 47.764 127.041 44.0091 125.658 41.4968C124.274 38.9846 121.36 37.0841 116.926 38.364C115.035 38.9103 114.285 39.209 114.045 39.3731C112.514 38.2882 104.867 32.9894 100.575 32.4225C95.7895 31.7903 79.1176 26.9633 76.6911 28.07C74.2633 29.1767 74.5473 33.9357 82.0368 40.3273C89.5262 46.7214 99.2143 48.6206 99.2143 48.6206L95.3123 51.7138C95.3123 51.7138 74.4603 43.1113 71.2365 44.8926C68.0127 46.6752 68.8086 52.7884 74.4398 56.2292C80.0709 59.6699 83.0836 61.7499 83.0836 61.7499C83.0836 61.7499 58.4741 80.2666 51.4889 84.1267C44.505 87.9867 24.4582 108.428 20.821 115.823C17.1838 123.216 4.62499 144.877 2.7923 152.233C0.986493 159.473 2.40835 188.832 4.22184 215.72Z" stroke="#D7BE8A" stroke-width="2.96639" stroke-miterlimit="10" stroke-linecap="round" stroke-linejoin="round"/>
<path d="M83.0832 61.7501L92.902 66.8554L102.097 80.3797L99.4456 99.7492C99.4456 99.7492 47.6377 120.791 35.4795 146.338" stroke="#D7BE8A" stroke-width="2.96639" stroke-miterlimit="10" stroke-linecap="round" stroke-linejoin="round"/>
<path d="M121.286 110.147C121.286 110.147 117.197 73.4392 115.123 69.6702C113.048 65.9025 99.6024 53.4106 95.3125 51.7139" stroke="#D7BE8A" stroke-width="2.96639" stroke-miterlimit="10" stroke-linecap="round" stroke-linejoin="round"/>
<path d="M114.319 39.5705L124.903 47.7639L133.676 56.4894L136.164 58.8837C137.58 60.2443 138.346 62.1474 138.267 64.1095L137.228 90.1013" stroke="#D7BE8A" stroke-width="2.96639" stroke-miterlimit="10" stroke-linecap="round" stroke-linejoin="round"/>
<path d="M143.435 35.181L150.499 48.0115" stroke="#D7BE8A" stroke-width="2.96639" stroke-miterlimit="10" stroke-linecap="round" stroke-linejoin="round"/>
<path d="M99.2139 48.6209L105.12 51.5012L113.945 63.071" stroke="#D7BE8A" stroke-width="2.96639" stroke-miterlimit="10" stroke-linecap="round" stroke-linejoin="round"/>
</svg>
