<svg width="37" height="42" viewBox="0 0 37 42" fill="none" xmlns="http://www.w3.org/2000/svg">
<path d="M1.84027 21.4038C2.94603 21.8386 4.1324 22.2067 5.35462 22.5144C11.5348 24.0687 16.1523 29.2085 17.3246 35.482C17.6727 37.3518 18.1117 39.1011 18.6608 40.4963C19.2111 39.1011 19.6488 37.3518 19.9982 35.482C21.1705 29.2085 25.788 24.0687 31.9669 22.5144C33.1904 22.2067 34.3768 21.8386 35.4813 21.4038C35.4813 21.4038 34.3858 21.1524 32.7758 20.8075C26.2846 19.4161 21.2396 14.2467 20.0673 7.69872C19.7064 5.68919 19.2469 3.7976 18.6608 2.30872C18.0759 3.79504 17.6177 5.68277 17.2568 7.68846C16.0871 14.2172 11.069 19.3802 4.59955 20.7857C2.95755 21.1435 1.84027 21.4038 1.84027 21.4038Z" stroke="#D7BE8A" stroke-width="2.96639" stroke-miterlimit="10" stroke-linecap="round" stroke-linejoin="round"/>
</svg>
